<svg width="80" height="80" viewBox="0 0 80 80" fill="none" xmlns="http://www.w3.org/2000/svg">
<mask id="mask0_75_80088" style="mask-type:alpha" maskUnits="userSpaceOnUse" x="2" y="2" width="75" height="75">
<rect x="2" y="2" width="75" height="75" fill="#D9D9D9"/>
</mask>
<g mask="url(#mask0_75_80088)">
</g>
<path d="M41.875 51.875C47.3978 51.875 51.875 47.3978 51.875 41.875C51.875 36.3522 47.3978 31.875 41.875 31.875C36.3522 31.875 31.875 36.3522 31.875 41.875C31.875 47.3978 36.3522 51.875 41.875 51.875Z" fill="#A1B0FF"/>
<path d="M40 50.625C45.868 50.625 50.625 45.868 50.625 40C50.625 34.132 45.868 29.375 40 29.375C34.132 29.375 29.375 34.132 29.375 40C29.375 45.868 34.132 50.625 40 50.625Z" stroke="black" stroke-width="1.25"/>
<path d="M29.3933 50.6068C19.6302 40.8437 16.4644 28.1804 22.3222 22.3226C28.1801 16.4647 40.8434 19.6305 50.6065 29.3936C60.3696 39.1567 63.5354 51.82 57.6776 57.6779C51.8197 63.5358 39.1564 60.3699 29.3933 50.6068Z" stroke="black" stroke-width="1.25"/>
<path d="M50.6067 50.6068C60.3698 40.8437 63.5356 28.1804 57.6778 22.3226C51.8199 16.4647 39.1566 19.6305 29.3935 29.3936C19.6304 39.1567 16.4646 51.82 22.3224 57.6779C28.1803 63.5358 40.8436 60.3699 50.6067 50.6068Z" stroke="black" stroke-width="1.25"/>
<path d="M40 45C42.7614 45 45 42.7614 45 40C45 37.2386 42.7614 35 40 35C37.2386 35 35 37.2386 35 40C35 42.7614 37.2386 45 40 45Z" stroke="black" stroke-width="1.25"/>
</svg>
