<svg width="75" height="75" viewBox="0 0 75 75" fill="none" xmlns="http://www.w3.org/2000/svg">
<mask id="mask0_75_80084" style="mask-type:alpha" maskUnits="userSpaceOnUse" x="0" y="0" width="75" height="75">
<rect width="75" height="75" fill="#D9D9D9"/>
</mask>
<g mask="url(#mask0_75_80084)">
<g filter="url(#filter0_d_75_80084)">
<path fill-rule="evenodd" clip-rule="evenodd" d="M33.5183 12.6175C36.3127 11.0975 39.687 11.0975 42.4814 12.6175L58.6814 21.4295C61.6998 23.0714 63.5788 26.2324 63.5788 29.6685V46.3457C63.5788 49.7817 61.6998 52.9427 58.6814 54.5846L42.4814 63.3966C39.687 64.9166 36.3127 64.9166 33.5183 63.3966L17.3183 54.5846C14.2999 52.9428 12.4209 49.7817 12.4209 46.3457V29.6685C12.4209 26.2324 14.2999 23.0714 17.3183 21.4295L33.5183 12.6175Z" fill="white"/>
<path fill-rule="evenodd" clip-rule="evenodd" d="M42.3168 31.5458V38.0224C42.3168 43.7275 39.257 46.5263 34.4229 46.5263C29.5888 46.5263 26.6318 43.7006 26.6318 38.1569V31.5458C26.6318 30.3886 27.5061 29.4736 28.6117 29.4736C29.7174 29.4736 30.5917 30.3886 30.5917 31.5458V38.0493C30.5917 41.1171 32.0573 42.7049 34.4743 42.7049C36.8914 42.7049 38.357 41.171 38.357 38.1838V31.5458C38.357 30.3886 39.2313 29.4736 40.3369 29.4736C41.4426 29.4736 42.3168 30.3886 42.3168 31.5458ZM47.3888 46.3917C46.2831 46.3917 45.4089 45.4767 45.4089 44.3196V31.5458C45.4089 30.3886 46.2831 29.4736 47.3888 29.4736C48.4944 29.4736 49.3687 30.3886 49.3687 31.5458V44.3196C49.3687 45.4767 48.4944 46.3917 47.3888 46.3917Z" fill="#2B3036"/>
<path fill-rule="evenodd" clip-rule="evenodd" d="M62.8646 35.4574C69.5337 35.4574 74.9401 29.9824 74.9401 23.2287C74.9401 16.475 69.5337 11 62.8646 11C56.1955 11 50.7891 16.475 50.7891 23.2287C50.7891 29.9824 56.1955 35.4574 62.8646 35.4574Z" fill="#2D68FF"/>
<path fill-rule="evenodd" clip-rule="evenodd" d="M62.8681 28.0528C64.9075 28.0528 66.4207 27.0028 66.4207 25.2068V25.1792C66.4207 24.0324 65.8681 23.4107 64.9339 22.8995C65.6444 22.4436 66.1049 21.8219 66.1049 20.7857V20.7581C66.1049 19.266 64.8154 18.1055 62.8681 18.1055C60.9207 18.1055 59.6312 19.2798 59.6312 20.7581V20.7857C59.6312 21.8219 60.0917 22.4436 60.8023 22.8995C59.8286 23.3693 59.3154 24.0601 59.3154 25.2344V25.262C59.3154 26.9476 60.8286 28.0528 62.8681 28.0528ZM62.8681 22.1949C62.0654 22.1949 61.5523 21.6838 61.5523 21.0068V20.9792C61.5523 20.3851 62.0391 19.8601 62.8681 19.8601C63.697 19.8601 64.1839 20.3989 64.1839 20.993V21.0206C64.1839 21.6976 63.6707 22.1949 62.8681 22.1949ZM61.276 25.0963C61.276 25.7594 61.8681 26.2982 62.8681 26.2982C63.8681 26.2982 64.4602 25.7732 64.4602 25.0963V25.0686C64.4602 24.3226 63.7891 23.8805 62.8681 23.8805C61.947 23.8805 61.276 24.3226 61.276 25.0686V25.0963Z" fill="white"/>
</g>
</g>
<defs>
<filter id="filter0_d_75_80084" x="9.57879" y="11" width="68.2037" height="59.6842" filterUnits="userSpaceOnUse" color-interpolation-filters="sRGB">
<feFlood flood-opacity="0" result="BackgroundImageFix"/>
<feColorMatrix in="SourceAlpha" type="matrix" values="0 0 0 0 0 0 0 0 0 0 0 0 0 0 0 0 0 0 127 0" result="hardAlpha"/>
<feOffset dy="2.84211"/>
<feGaussianBlur stdDeviation="1.42105"/>
<feColorMatrix type="matrix" values="0 0 0 0 0 0 0 0 0 0 0 0 0 0 0 0 0 0 0.1 0"/>
<feBlend mode="normal" in2="BackgroundImageFix" result="effect1_dropShadow_75_80084"/>
<feBlend mode="normal" in="SourceGraphic" in2="effect1_dropShadow_75_80084" result="shape"/>
</filter>
</defs>
</svg>
