<svg width="75" height="75" viewBox="0 0 75 75" fill="none" xmlns="http://www.w3.org/2000/svg">
<mask id="mask0_75_80085" style="mask-type:alpha" maskUnits="userSpaceOnUse" x="0" y="0" width="75" height="75">
<rect width="75" height="75" fill="#D9D9D9"/>
</mask>
<g mask="url(#mask0_75_80085)">
</g>
<g clip-path="url(#clip0_75_80085)">
<path d="M38.0001 64.8801C52.8455 64.8801 64.8801 52.8455 64.8801 38.0001C64.8801 23.1547 52.8455 11.1201 38.0001 11.1201C23.1547 11.1201 11.1201 23.1547 11.1201 38.0001C11.1201 52.8455 23.1547 64.8801 38.0001 64.8801Z" fill="#EA4C89"/>
<path fill-rule="evenodd" clip-rule="evenodd" d="M38 10C22.5423 10 10 22.5423 10 38C10 53.4577 22.5423 66 38 66C53.4274 66 66 53.4577 66 38C66 22.5423 53.4274 10 38 10ZM56.4946 22.9069C59.9413 27.1051 61.8487 32.3557 61.9002 37.7872C61.1106 37.636 53.2146 36.026 45.2582 37.0284C45.0762 36.6336 44.9238 36.208 44.7418 35.783C44.2464 34.6151 43.7198 33.4607 43.1626 32.321C51.9698 28.737 55.9782 23.575 56.4946 22.9069ZM38 14.13C44.0738 14.13 49.6312 16.4081 53.8525 20.1433C53.4269 20.7503 49.8132 25.5792 41.3102 28.7678C37.3924 21.5707 33.0502 15.679 32.3815 14.7678C34.1735 14.3422 36.0562 14.13 38 14.13ZM27.8265 16.3773C28.4643 17.2279 32.7158 23.1499 36.6941 30.1953C25.5187 33.1711 15.6487 33.1106 14.5853 33.1106C16.1342 25.7007 21.1451 19.5362 27.8265 16.3778V16.3773ZM14.0695 38.0302V37.3017C15.1022 37.3319 26.7031 37.4837 38.6378 33.9002C39.3362 35.2364 39.974 36.6028 40.581 37.9698C40.2775 38.061 39.9438 38.1518 39.6402 38.243C27.3096 42.2213 20.7498 53.0931 20.2032 54.0042C16.4081 49.783 14.0695 44.1656 14.0695 38.0302ZM38 61.931C32.6842 61.9394 27.5193 60.1641 23.3319 56.8894C23.7575 56.0085 28.6161 46.6554 42.0998 41.948C42.1602 41.9178 42.191 41.9178 42.2515 41.887C45.6227 50.6028 46.9891 57.922 47.3531 60.0175C44.4686 61.2624 41.3107 61.9305 38 61.9305V61.931ZM51.3319 57.8307C51.0889 56.373 49.8132 49.3882 46.6856 40.7938C54.1868 39.6094 60.7461 41.5532 61.5659 41.8265C60.5338 48.477 56.7074 54.217 51.3319 57.8313V57.8307Z" fill="#C32361"/>
</g>
<defs>
<clipPath id="clip0_75_80085">
<rect width="56" height="56" fill="white" transform="translate(10 10)"/>
</clipPath>
</defs>
</svg>
