<svg width="48" height="48" viewBox="0 0 48 48" fill="none" xmlns="http://www.w3.org/2000/svg">
<g clip-path="url(#clip0_2_11437)">
<path d="M20.354 14.6973L11.541 5.88428" stroke="#272E35" stroke-width="3" stroke-miterlimit="10" stroke-linecap="round" stroke-linejoin="round"/>
<path d="M5.88477 11.541L14.6988 20.354" stroke="#272E35" stroke-width="3" stroke-miterlimit="10" stroke-linecap="round" stroke-linejoin="round"/>
<path d="M33.3037 20.354L42.1167 11.541" stroke="#272E35" stroke-width="3" stroke-miterlimit="10" stroke-linecap="round" stroke-linejoin="round"/>
<path d="M36.4595 5.88428L27.6465 14.6983" stroke="#272E35" stroke-width="3" stroke-miterlimit="10" stroke-linecap="round" stroke-linejoin="round"/>
<path d="M27.6465 33.3032L36.4595 42.1162" stroke="#272E35" stroke-width="3" stroke-miterlimit="10" stroke-linecap="round" stroke-linejoin="round"/>
<path d="M42.1167 36.459L33.3027 27.646" stroke="#272E35" stroke-width="3" stroke-miterlimit="10" stroke-linecap="round" stroke-linejoin="round"/>
<path d="M14.6978 27.646L5.88477 36.459" stroke="#272E35" stroke-width="3" stroke-miterlimit="10" stroke-linecap="round" stroke-linejoin="round"/>
<path d="M11.541 42.1162L20.354 33.3022" stroke="#272E35" stroke-width="3" stroke-miterlimit="10" stroke-linecap="round" stroke-linejoin="round"/>
<path d="M39.5563 39.5562C48.1477 30.9647 48.1477 17.0353 39.5563 8.4438C30.9648 -0.147651 17.0353 -0.147651 8.44389 8.4438C-0.147557 17.0353 -0.147557 30.9647 8.44389 39.5562C17.0353 48.1477 30.9648 48.1477 39.5563 39.5562Z" stroke="#272E35" stroke-width="3" stroke-miterlimit="10" stroke-linecap="round" stroke-linejoin="round"/>
<path d="M31.0714 31.071C34.9766 27.1658 34.9766 20.8342 31.0714 16.929C27.1662 13.0238 20.8346 13.0238 16.9294 16.929C13.0242 20.8342 13.0242 27.1658 16.9294 31.071C20.8346 34.9762 27.1662 34.9762 31.0714 31.071Z" stroke="#272E35" stroke-width="3" stroke-miterlimit="10" stroke-linecap="round" stroke-linejoin="round"/>
</g>
<defs>
<clipPath id="clip0_2_11437">
<rect width="48" height="48" fill="white"/>
</clipPath>
</defs>
</svg>
