<svg width="48" height="48" viewBox="0 0 48 48" fill="none" xmlns="http://www.w3.org/2000/svg">
<path d="M9.99023 37.8511L24.0002 45.9391L38.0102 37.8511" stroke="#272E35" stroke-width="3" stroke-miterlimit="10" stroke-linecap="round" stroke-linejoin="round"/>
<path d="M19.01 4.94189L5 13.0299V29.2069" stroke="#272E35" stroke-width="3" stroke-miterlimit="10" stroke-linecap="round" stroke-linejoin="round"/>
<path d="M43.0002 29.2079V13.0299L28.9902 4.94189" stroke="#272E35" stroke-width="3" stroke-miterlimit="10" stroke-linecap="round" stroke-linejoin="round"/>
<path d="M29 5V12C29 13.657 26.761 15 24 15C21.239 15 19 13.657 19 12V5" stroke="#272E35" stroke-width="3" stroke-miterlimit="10" stroke-linecap="round" stroke-linejoin="round"/>
<path d="M24 8C26.7614 8 29 6.65685 29 5C29 3.34315 26.7614 2 24 2C21.2386 2 19 3.34315 19 5C19 6.65685 21.2386 8 24 8Z" stroke="#272E35" stroke-width="3" stroke-miterlimit="10" stroke-linecap="round" stroke-linejoin="round"/>
<path d="M5 13.0298L24 23.9998L43 13.0298" stroke="#272E35" stroke-width="3" stroke-miterlimit="10" stroke-linecap="round" stroke-linejoin="round"/>
<path d="M42.9534 29.1699L36.8914 25.6699C35.4564 24.8409 33.1744 26.1089 31.7914 28.4999C30.4084 30.8909 30.4544 33.4999 31.8914 34.3299L37.9534 37.8299" stroke="#272E35" stroke-width="3" stroke-miterlimit="10" stroke-linecap="round" stroke-linejoin="round"/>
<path d="M42.9535 29.1699C41.5195 28.3409 39.2365 29.6089 37.8535 31.9999C36.4705 34.3909 36.5175 36.9999 37.9535 37.8299C39.3895 38.6599 41.6715 37.3919 43.0535 34.9999C44.4355 32.6079 44.3885 29.9999 42.9535 29.1699Z" stroke="#272E35" stroke-width="3" stroke-miterlimit="10" stroke-linecap="round" stroke-linejoin="round"/>
<path d="M24 24V45.939" stroke="#272E35" stroke-width="3" stroke-miterlimit="10" stroke-linecap="round" stroke-linejoin="round"/>
<path d="M10.0449 37.8299L16.1079 34.3299C17.5419 33.5019 17.5859 30.8909 16.2079 28.4999C14.8299 26.1089 12.5439 24.8409 11.1079 25.6699L5.04492 29.1699" stroke="#272E35" stroke-width="3" stroke-miterlimit="10" stroke-linecap="round" stroke-linejoin="round"/>
<path d="M10.1428 32C8.76281 29.608 6.47981 28.341 5.04281 29.17C3.60581 29.999 3.56481 32.608 4.94281 35C6.32081 37.392 8.60681 38.659 10.0428 37.83C11.4788 37.001 11.5238 34.391 10.1428 32Z" stroke="#272E35" stroke-width="3" stroke-miterlimit="10" stroke-linecap="round" stroke-linejoin="round"/>
</svg>
