<svg width="167" height="57" viewBox="0 0 167 57" fill="none" xmlns="http://www.w3.org/2000/svg">
<g clip-path="url(#clip0_84_24869)">
<path d="M153.701 0.155762H13.3064C12.7942 0.155762 12.2876 0.155762 11.7782 0.158553C11.3512 0.161344 10.9269 0.169717 10.4957 0.176695C9.5586 0.186928 8.62365 0.268573 7.69897 0.420921C6.77611 0.577514 5.88217 0.872512 5.04737 1.29595C4.21242 1.72348 3.44957 2.27914 2.78654 2.94272C2.12121 3.60328 1.56658 4.36666 1.14395 5.20355C0.719807 6.03929 0.425677 6.93486 0.271718 7.85933C0.11643 8.7828 0.0329105 9.7169 0.0219102 10.6533C0.00795444 11.0817 0.00795443 11.5115 0.000976562 11.9386V44.2001C0.00795443 44.6327 0.00935001 45.0514 0.0219102 45.4854C0.0333662 46.4218 0.117352 47.3559 0.273114 48.2794C0.426079 49.2048 0.719758 50.1013 1.14395 50.9379C1.56698 51.7716 2.12216 52.5313 2.78794 53.1876C3.4477 53.8534 4.21008 54.4089 5.04598 54.833C5.88127 55.2573 6.77558 55.5537 7.69897 55.7122C8.62374 55.8642 9.55859 55.9468 10.4957 55.9592C10.9283 55.969 11.3512 55.9745 11.7782 55.9745C12.289 55.9773 12.7942 55.9773 13.3064 55.9773H153.701C154.204 55.9773 154.712 55.9773 155.214 55.9745C155.638 55.9745 156.075 55.969 156.501 55.9606C157.436 55.9483 158.369 55.8653 159.292 55.7122C160.218 55.5525 161.115 55.2562 161.955 54.833C162.79 54.4087 163.552 53.8532 164.211 53.1876C164.876 52.528 165.433 51.7678 165.861 50.9351C166.282 50.098 166.574 49.2015 166.725 48.2766C166.88 47.353 166.966 46.4191 166.983 45.4826C166.988 45.05 166.988 44.6313 166.988 44.1973C167 43.6893 167 43.1855 167 42.6705V13.464C167 12.9532 167 12.4452 166.988 11.94C166.988 11.5129 166.988 11.0831 166.983 10.6561C166.966 9.71916 166.88 8.78479 166.725 7.86073C166.573 6.93672 166.281 6.04122 165.859 5.20495C164.998 3.52623 163.633 2.15964 161.955 1.29734C161.115 0.874863 160.218 0.579941 159.292 0.422316C158.369 0.268856 157.436 0.186739 156.501 0.176695C156.075 0.169717 155.638 0.161344 155.214 0.158553C154.712 0.155762 154.202 0.155762 153.701 0.155762V0.155762Z" fill="#A6A6A6"/>
<path d="M11.7851 54.7574C11.3594 54.7574 10.9449 54.7518 10.5235 54.7435C9.6491 54.7317 8.7768 54.6552 7.91374 54.5146C7.10966 54.3759 6.33075 54.1181 5.60267 53.7498C4.881 53.3847 4.22272 52.906 3.65305 52.3319C3.07538 51.764 2.59453 51.1055 2.22956 50.3823C1.85983 49.6548 1.60379 48.8749 1.47037 48.0698C1.32704 47.2047 1.24959 46.33 1.23871 45.4531C1.22894 45.1601 1.21777 44.179 1.21777 44.179V11.9412C1.21777 11.9412 1.23033 10.9755 1.23871 10.6922C1.24911 9.81675 1.32609 8.94339 1.46898 8.07965C1.60241 7.27234 1.85843 6.49017 2.22817 5.76021C2.59201 5.03772 3.07036 4.37887 3.64468 3.80919C4.2182 3.23391 4.87842 2.75216 5.60127 2.38152C6.32786 2.01434 7.10551 1.75841 7.90816 1.62233C8.77391 1.48077 9.64906 1.40426 10.5263 1.39346L11.7851 1.37671H155.207L156.481 1.39485C157.35 1.40493 158.217 1.48051 159.074 1.62093C159.885 1.7587 160.671 2.01645 161.406 2.38571C162.854 3.13217 164.033 4.31311 164.776 5.763C165.14 6.48806 165.391 7.26394 165.523 8.0643C165.668 8.93504 165.749 9.81519 165.766 10.6977C165.77 11.0927 165.77 11.5183 165.77 11.9398C165.781 12.4632 165.781 12.9614 165.781 13.4638V42.6717C165.781 43.1783 165.781 43.6738 165.77 44.172C165.77 44.6256 165.77 45.0414 165.764 45.4699C165.748 46.3365 165.669 47.2008 165.527 48.0559C165.397 48.8668 165.143 49.6528 164.773 50.3865C164.406 51.1018 163.927 51.7546 163.356 52.3208C162.785 52.898 162.125 53.3796 161.402 53.747C160.669 54.1183 159.884 54.3771 159.074 54.5146C158.211 54.6554 157.34 54.7315 156.466 54.7421C156.057 54.7518 155.628 54.7574 155.214 54.7574L153.701 54.7602L11.7851 54.7574Z" fill="black"/>
<path d="M34.5668 28.4861C34.582 27.3216 34.8914 26.1799 35.4662 25.167C36.0411 24.1542 36.8627 23.3032 37.8547 22.6931C37.2245 21.7929 36.3931 21.052 35.4265 20.5292C34.4599 20.0064 33.3847 19.7162 32.2864 19.6815C29.9418 19.4358 27.6698 21.084 26.4752 21.084C25.2583 21.084 23.4189 19.7052 21.44 19.747C20.1593 19.7884 18.9111 20.1608 17.8171 20.828C16.7231 21.4952 15.8206 22.4344 15.1976 23.5542C12.4985 28.2266 14.5124 35.0942 17.097 38.872C18.3907 40.7211 19.9021 42.7866 21.881 42.714C23.8166 42.6331 24.5396 41.4789 26.8771 41.4789C29.191 41.4789 29.8693 42.714 31.8873 42.668C33.9653 42.6331 35.2729 40.8091 36.5206 38.9418C37.4507 37.6242 38.1666 36.1679 38.6418 34.6267C37.4347 34.1164 36.4045 33.2619 35.6798 32.1699C34.9551 31.0779 34.568 29.7967 34.5668 28.4861Z" fill="white"/>
<path d="M30.7537 17.1965C31.8863 15.8373 32.4445 14.0901 32.3097 12.3259C30.5791 12.5076 28.9806 13.3348 27.8327 14.6426C27.2716 15.281 26.8419 16.0237 26.5679 16.8283C26.294 17.6329 26.1813 18.4836 26.2362 19.3317C27.1016 19.3406 27.9578 19.1531 28.7403 18.7833C29.5228 18.4134 30.2112 17.8709 30.7537 17.1965Z" fill="white"/>
<path d="M59.0356 38.0319H52.4318L50.845 42.7155H48.0469L54.3046 25.3853H57.2116L63.468 42.7155H60.6224L59.0356 38.0319ZM53.1142 35.8688H58.3504L55.7686 28.2685H55.6974L53.1142 35.8688Z" fill="white"/>
<path d="M76.9794 36.4002C76.9794 40.3259 74.8777 42.8477 71.7056 42.8477C70.9025 42.8896 70.1039 42.7046 69.401 42.314C68.6981 41.9233 68.1194 41.3427 67.731 40.6386H67.671V46.8963H65.0752V30.081H67.5872V32.1828H67.6333C68.0395 31.4817 68.6282 30.9038 69.3366 30.5107C70.0451 30.1175 70.8469 29.9237 71.6567 29.9499C74.8638 29.9499 76.978 32.4842 76.978 36.4002H76.9794ZM74.3139 36.4002C74.3139 33.8421 72.9909 32.1604 70.9743 32.1604C68.9926 32.1604 67.6598 33.877 67.6598 36.4002C67.6598 38.9457 68.9926 40.6511 70.9743 40.6511C72.9909 40.6511 74.3139 38.9806 74.3139 36.4002Z" fill="white"/>
<path d="M90.8863 36.4002C90.8863 40.3259 88.7845 42.8477 85.6124 42.8477C84.8093 42.8896 84.0107 42.7046 83.3078 42.314C82.6049 41.9233 82.0262 41.3427 81.6378 40.6386H81.5778V46.8963H78.9834V30.081H81.494V32.1828H81.5415C81.9477 31.4817 82.5364 30.9038 83.2448 30.5107C83.9533 30.1175 84.7551 29.9237 85.5649 29.9499C88.772 29.9499 90.8863 32.4842 90.8863 36.4002ZM88.2207 36.4002C88.2207 33.8421 86.8977 32.1604 84.8811 32.1604C82.8994 32.1604 81.5666 33.877 81.5666 36.4002C81.5666 38.9457 82.8994 40.6511 84.8811 40.6511C86.8977 40.6511 88.2193 38.9806 88.2193 36.4002H88.2207Z" fill="white"/>
<path d="M100.076 37.8876C100.269 39.607 101.938 40.7346 104.221 40.7346C106.407 40.7346 107.979 39.607 107.979 38.0565C107.979 36.7111 107.03 35.9073 104.784 35.3546L102.538 34.8132C99.3561 34.0456 97.8782 32.5565 97.8782 30.1408C97.8782 27.1515 100.484 25.0972 104.185 25.0972C107.847 25.0972 110.357 27.1515 110.441 30.1408H107.823C107.667 28.4117 106.238 27.3678 104.147 27.3678C102.057 27.3678 100.629 28.4242 100.629 29.9607C100.629 31.1861 101.542 31.9076 103.776 32.4588L105.685 32.9277C109.241 33.7693 110.718 35.1969 110.718 37.7327C110.718 40.9746 108.136 43.0052 104.029 43.0052C100.185 43.0052 97.5893 41.0235 97.4219 37.8876H100.076Z" fill="white"/>
<path d="M116.315 27.0914V30.0808H118.718V32.135H116.315V39.1003C116.315 40.1833 116.797 40.6871 117.853 40.6871C118.138 40.6821 118.423 40.6621 118.706 40.6271V42.6688C118.231 42.7576 117.748 42.7978 117.266 42.7889C114.707 42.7889 113.71 41.8273 113.71 39.3767V32.135H111.873V30.0808H113.71V27.0914H116.315Z" fill="white"/>
<path d="M120.11 36.3995C120.11 32.4235 122.452 29.9254 126.103 29.9254C129.766 29.9254 132.097 32.4235 132.097 36.3995C132.097 40.3852 129.779 42.8722 126.103 42.8722C122.428 42.8722 120.11 40.3852 120.11 36.3995ZM129.454 36.3995C129.454 33.6725 128.205 32.062 126.103 32.062C124.001 32.062 122.754 33.6837 122.754 36.3995C122.754 39.1376 124.001 40.7341 126.103 40.7341C128.205 40.7341 129.454 39.1376 129.454 36.3995Z" fill="white"/>
<path d="M134.234 30.0808H136.709V32.2314H136.769C136.936 31.5602 137.33 30.9671 137.883 30.5516C138.436 30.1361 139.116 29.9236 139.807 29.9497C140.106 29.9484 140.404 29.9807 140.696 30.0459V32.4715C140.319 32.3563 139.925 32.3035 139.531 32.3151C139.154 32.2999 138.778 32.3663 138.429 32.5098C138.081 32.6534 137.767 32.8707 137.51 33.1469C137.254 33.4231 137.06 33.7515 136.942 34.1097C136.824 34.4679 136.785 34.8474 136.827 35.2221V42.7164H134.234V30.0808Z" fill="white"/>
<path d="M152.654 39.005C152.305 41.2979 150.072 42.8722 147.214 42.8722C143.538 42.8722 141.256 40.4104 141.256 36.4595C141.256 32.4961 143.55 29.9254 147.103 29.9254C150.601 29.9254 152.797 32.3258 152.797 36.1581V37.047H143.874V37.2033C143.833 37.6683 143.891 38.1368 144.045 38.5775C144.199 39.0183 144.445 39.4212 144.766 39.7597C145.088 40.0981 145.478 40.3643 145.91 40.5405C146.342 40.7166 146.807 40.7988 147.274 40.7816C147.886 40.8389 148.501 40.6969 149.026 40.3769C149.552 40.0568 149.96 39.5757 150.19 39.005H152.654ZM143.887 35.2342H150.203C150.226 34.8161 150.163 34.3977 150.017 34.0053C149.871 33.6129 149.645 33.2549 149.355 32.9537C149.064 32.6526 148.714 32.4148 148.326 32.2554C147.939 32.0959 147.523 32.0182 147.105 32.0272C146.682 32.0246 146.264 32.1057 145.873 32.2658C145.482 32.4259 145.127 32.6619 144.827 32.96C144.528 33.2582 144.291 33.6127 144.129 34.003C143.968 34.3933 143.885 34.8118 143.887 35.2342Z" fill="white"/>
<path d="M52.7887 12.3407C53.3325 12.3017 53.8781 12.3839 54.3863 12.5813C54.8945 12.7787 55.3526 13.0864 55.7274 13.4822C56.1023 13.878 56.3847 14.3521 56.5541 14.8703C56.7236 15.3885 56.776 15.9378 56.7075 16.4786C56.7075 19.1386 55.27 20.6681 52.7887 20.6681H49.7812V12.3393L52.7887 12.3407ZM51.0749 19.4903H52.645C53.0334 19.5133 53.4221 19.4494 53.7828 19.3034C54.1434 19.1573 54.467 18.9326 54.7299 18.6458C54.9928 18.3589 55.1885 18.0171 55.3027 17.6451C55.4169 17.2731 55.4467 16.8803 55.3901 16.4954C55.4427 16.1119 55.4099 15.7215 55.294 15.3522C55.1781 14.9829 54.9819 14.6438 54.7196 14.3592C54.4572 14.0746 54.1352 13.8515 53.7765 13.7059C53.4179 13.5604 53.0315 13.4959 52.645 13.5172H51.0749V19.4903Z" fill="white"/>
<path d="M58.1676 17.5231C58.1296 17.1109 58.178 16.6953 58.3097 16.3029C58.4414 15.9105 58.6535 15.5498 58.9324 15.244C59.2114 14.9381 59.551 14.6938 59.9297 14.5267C60.3084 14.3595 60.7178 14.2732 61.1318 14.2732C61.5457 14.2732 61.9551 14.3595 62.3338 14.5267C62.7125 14.6938 63.0522 14.9381 63.3311 15.244C63.6101 15.5498 63.8222 15.9105 63.9538 16.3029C64.0855 16.6953 64.1339 17.1109 64.096 17.5231C64.1372 17.9371 64.0912 18.355 63.961 18.7501C63.8309 19.1452 63.6194 19.5086 63.3402 19.817C63.061 20.1254 62.7203 20.3719 62.34 20.5405C61.9598 20.7092 61.5484 20.7963 61.1325 20.7963C60.7165 20.7963 60.3051 20.7092 59.9249 20.5405C59.5446 20.3719 59.2039 20.1254 58.9247 19.817C58.6455 19.5086 58.434 19.1452 58.3039 18.7501C58.1737 18.355 58.1277 17.9371 58.169 17.5231H58.1676ZM62.8204 17.5231C62.8204 16.161 62.2077 15.3642 61.1345 15.3642C60.0558 15.3642 59.4501 16.161 59.4501 17.5231C59.4501 18.8964 60.0558 19.6863 61.1345 19.6863C62.2091 19.6863 62.8204 18.8908 62.8204 17.5231Z" fill="white"/>
<path d="M71.9737 20.6687H70.687L69.3891 16.0396H69.2914L67.9977 20.6687H66.7235L64.9902 14.3844H66.249L67.3739 19.1796H67.4674L68.7597 14.3844H69.9487L71.241 19.1796H71.3387L72.4593 14.3844H73.7L71.9737 20.6687Z" fill="white"/>
<path d="M75.1572 14.3842H76.3504V15.3821H76.4426C76.5998 15.0235 76.8651 14.723 77.2013 14.5224C77.5375 14.3217 77.928 14.231 78.3182 14.2628C78.624 14.2398 78.9311 14.286 79.2166 14.3978C79.5022 14.5096 79.759 14.6842 79.9679 14.9087C80.1769 15.1331 80.3326 15.4017 80.4237 15.6946C80.5147 15.9874 80.5387 16.297 80.4939 16.6004V20.6685H79.2532V16.9116C79.2532 15.9012 78.815 15.3988 77.8967 15.3988C77.6892 15.3892 77.482 15.4246 77.2894 15.5025C77.0968 15.5804 76.9233 15.6991 76.7808 15.8503C76.6383 16.0015 76.5302 16.1818 76.4639 16.3787C76.3975 16.5756 76.3746 16.7845 76.3965 16.9912V20.6685H75.1572V14.3842Z" fill="white"/>
<path d="M82.4697 11.9312H83.709V20.6674H82.4697V11.9312Z" fill="white"/>
<path d="M85.4336 17.5236C85.3945 17.1109 85.4421 16.6946 85.5732 16.3013C85.7044 15.908 85.9162 15.5464 86.1952 15.2398C86.4742 14.9331 86.8142 14.6881 87.1934 14.5205C87.5725 14.3528 87.9825 14.2662 88.3971 14.2662C88.8117 14.2662 89.2217 14.3528 89.6009 14.5205C89.98 14.6881 90.32 14.9331 90.599 15.2398C90.878 15.5464 91.0898 15.908 91.221 16.3013C91.3521 16.6946 91.3997 17.1109 91.3606 17.5236C91.4018 17.9376 91.3559 18.3555 91.2257 18.7506C91.0955 19.1457 90.884 19.5092 90.6048 19.8175C90.3256 20.1259 89.9849 20.3724 89.6047 20.541C89.2244 20.7097 88.8131 20.7969 88.3971 20.7969C87.9811 20.7969 87.5698 20.7097 87.1895 20.541C86.8093 20.3724 86.4686 20.1259 86.1894 19.8175C85.9102 19.5092 85.6987 19.1457 85.5685 18.7506C85.4383 18.3555 85.3924 17.9376 85.4336 17.5236ZM90.0851 17.5236C90.0851 16.1615 89.4724 15.3647 88.3992 15.3647C87.3204 15.3647 86.7147 16.1615 86.7147 17.5236C86.7147 18.8969 87.3204 19.6868 88.3992 19.6868C89.4738 19.6868 90.0851 18.8913 90.0851 17.5236Z" fill="white"/>
<path d="M92.666 18.8912C92.666 17.7608 93.5089 17.1077 95.005 17.0156L96.7076 16.9179V16.375C96.7076 15.7121 96.268 15.3367 95.4209 15.3367C94.7273 15.3367 94.2486 15.5907 94.1104 16.0345H92.9102C93.0358 14.9557 94.0518 14.2621 95.4781 14.2621C97.0523 14.2621 97.9413 15.0478 97.9413 16.375V20.6692H96.7481V19.7858H96.6504C96.4511 20.1026 96.1714 20.361 95.8396 20.5343C95.5079 20.7077 95.1361 20.7898 94.7622 20.7724C94.4983 20.7999 94.2316 20.7718 93.9793 20.6899C93.7269 20.608 93.4946 20.4741 93.2972 20.2968C93.0998 20.1195 92.9418 19.9029 92.8333 19.6608C92.7248 19.4187 92.6683 19.1565 92.6674 18.8912H92.666ZM96.7062 18.3553V17.8292L95.1711 17.9269C94.3058 17.9855 93.915 18.2799 93.915 18.834C93.915 19.3992 94.4049 19.7272 95.079 19.7272C95.2765 19.7471 95.476 19.7271 95.6656 19.6684C95.8553 19.6098 96.0312 19.5136 96.183 19.3857C96.3347 19.2577 96.4593 19.1006 96.5491 18.9236C96.639 18.7466 96.6924 18.5533 96.7062 18.3553Z" fill="white"/>
<path d="M99.5713 17.5232C99.5713 15.5373 100.593 14.2799 102.181 14.2799C102.574 14.262 102.963 14.3562 103.304 14.5514C103.645 14.7467 103.924 15.0349 104.107 15.3824H104.2V11.9312H105.44V20.6674H104.252V19.6766H104.154C103.956 20.022 103.668 20.3067 103.32 20.4998C102.972 20.6929 102.577 20.7871 102.18 20.7721C100.582 20.7721 99.5713 19.5147 99.5713 17.5232ZM100.852 17.5232C100.852 18.856 101.48 19.6584 102.531 19.6584C103.578 19.6584 104.223 18.8448 104.223 17.5288C104.223 16.2198 103.57 15.3936 102.531 15.3936C101.487 15.3936 100.852 16.203 100.852 17.5232Z" fill="white"/>
<path d="M110.571 17.5236C110.532 17.1109 110.58 16.6946 110.711 16.3013C110.842 15.908 111.054 15.5464 111.333 15.2398C111.612 14.9331 111.952 14.6881 112.331 14.5205C112.71 14.3528 113.12 14.2662 113.535 14.2662C113.949 14.2662 114.359 14.3528 114.739 14.5205C115.118 14.6881 115.458 14.9331 115.737 15.2398C116.016 15.5464 116.228 15.908 116.359 16.3013C116.49 16.6946 116.537 17.1109 116.498 17.5236C116.54 17.9376 116.494 18.3555 116.363 18.7506C116.233 19.1457 116.022 19.5092 115.743 19.8175C115.463 20.1259 115.123 20.3724 114.742 20.541C114.362 20.7097 113.951 20.7969 113.535 20.7969C113.119 20.7969 112.707 20.7097 112.327 20.541C111.947 20.3724 111.606 20.1259 111.327 19.8175C111.048 19.5092 110.836 19.1457 110.706 18.7506C110.576 18.3555 110.53 17.9376 110.571 17.5236ZM115.223 17.5236C115.223 16.1615 114.611 15.3647 113.537 15.3647C112.46 15.3647 111.852 16.1615 111.852 17.5236C111.852 18.8969 112.46 19.6868 113.537 19.6868C114.611 19.6868 115.223 18.8913 115.223 17.5236Z" fill="white"/>
<path d="M118.163 14.3842H119.356V15.3821H119.448C119.605 15.0235 119.87 14.723 120.207 14.5224C120.543 14.3217 120.933 14.231 121.324 14.2628C121.629 14.2398 121.936 14.286 122.222 14.3978C122.508 14.5096 122.764 14.6842 122.973 14.9087C123.182 15.1331 123.338 15.4017 123.429 15.6946C123.52 15.9874 123.544 16.297 123.499 16.6004V20.6685H122.259V16.9116C122.259 15.9012 121.82 15.3988 120.902 15.3988C120.694 15.3892 120.487 15.4246 120.295 15.5025C120.102 15.5804 119.929 15.6991 119.786 15.8503C119.644 16.0015 119.535 16.1818 119.469 16.3787C119.403 16.5756 119.38 16.7845 119.402 16.9912V20.6685H118.161L118.163 14.3842Z" fill="white"/>
<path d="M130.507 12.8206V14.4129H131.869V15.4582H130.507V18.6889C130.507 19.3477 130.778 19.6365 131.396 19.6365C131.554 19.6358 131.712 19.626 131.869 19.6072V20.64C131.646 20.6801 131.42 20.7016 131.194 20.7042C129.815 20.7042 129.266 20.2185 129.266 19.0071V15.4582H128.269V14.4129H129.266V12.8206H130.507Z" fill="white"/>
<path d="M133.563 11.9312H134.792V15.3936H134.889C135.054 15.0316 135.327 14.7295 135.67 14.5282C136.013 14.3269 136.41 14.2363 136.807 14.2687C137.111 14.2522 137.415 14.3031 137.697 14.4177C137.979 14.5322 138.233 14.7077 138.44 14.9315C138.646 15.1553 138.801 15.4219 138.893 15.7124C138.984 16.0029 139.011 16.31 138.97 16.6119V20.6688H137.729V16.9175C137.729 15.9127 137.262 15.4047 136.385 15.4047C136.172 15.3872 135.958 15.4165 135.757 15.4906C135.556 15.5646 135.374 15.6817 135.223 15.8335C135.073 15.9853 134.957 16.1682 134.884 16.3695C134.812 16.5707 134.784 16.7854 134.803 16.9985V20.6688H133.563V11.9312Z" fill="white"/>
<path d="M146.201 18.9723C146.033 19.5464 145.668 20.0431 145.171 20.3755C144.673 20.7079 144.075 20.8549 143.48 20.7908C143.066 20.802 142.654 20.7228 142.273 20.5589C141.893 20.3949 141.553 20.15 141.276 19.8412C141 19.5324 140.794 19.1672 140.673 18.7708C140.552 18.3745 140.519 17.9565 140.576 17.546C140.521 17.1346 140.555 16.7161 140.676 16.319C140.796 15.9218 141.001 15.5552 141.276 15.244C141.55 14.9328 141.889 14.6842 142.268 14.5151C142.647 14.3459 143.058 14.2602 143.473 14.2637C145.222 14.2637 146.277 15.4583 146.277 17.4316V17.8642H141.839V17.934C141.819 18.1647 141.848 18.397 141.924 18.6158C142 18.8347 142.12 19.0353 142.278 19.2048C142.435 19.3743 142.627 19.509 142.84 19.6002C143.052 19.6914 143.282 19.7371 143.514 19.7343C143.81 19.7694 144.11 19.7157 144.376 19.5801C144.642 19.4444 144.861 19.2329 145.007 18.9723H146.201ZM141.839 16.9473H145.014C145.03 16.7363 145.001 16.5242 144.93 16.3249C144.859 16.1255 144.747 15.9433 144.601 15.7898C144.455 15.6364 144.279 15.5152 144.083 15.4341C143.888 15.3529 143.678 15.3136 143.466 15.3187C143.252 15.3161 143.039 15.3564 142.84 15.4374C142.641 15.5183 142.461 15.6382 142.309 15.79C142.157 15.9417 142.038 16.1223 141.957 16.3211C141.876 16.5199 141.836 16.7328 141.839 16.9473Z" fill="white"/>
</g>
<defs>
<clipPath id="clip0_84_24869">
<rect width="167" height="56.1345" fill="white"/>
</clipPath>
</defs>
</svg>
