<svg width="167" height="57" viewBox="0 0 167 57" fill="none" xmlns="http://www.w3.org/2000/svg">
<g clip-path="url(#clip0_84_24855)">
<path fill-rule="evenodd" clip-rule="evenodd" d="M160.813 56.3625H6.18746C2.77729 56.3625 0 53.186 0 49.3172V7.04531C0 3.16248 2.77729 0 6.18746 0H160.813C164.22 0 167 3.16248 167 7.04531V49.3172C167 53.186 164.22 56.3625 160.813 56.3625Z" fill="black"/>
<path fill-rule="evenodd" clip-rule="evenodd" d="M160.813 1.12795C163.673 1.12795 166.014 3.78795 166.014 7.04531V49.3172C166.014 52.5746 163.688 55.2346 160.813 55.2346H6.18746C3.32722 55.2346 0.986184 52.5746 0.986184 49.3172V7.04531C0.986184 3.78795 3.31186 1.12795 6.18746 1.12795H160.813ZM160.813 0H6.18746C2.77729 0 0 3.17654 0 7.04531V49.3172C0 53.2 2.77729 56.3625 6.18746 56.3625H160.813C164.22 56.3625 167 53.2 167 49.3172V7.04531C167 3.17654 164.22 0 160.813 0Z" fill="#A6A6A6"/>
<path d="M87.9733 19.4472C86.8581 19.4472 85.9181 19.057 85.1746 18.289C84.4373 17.5425 84.0256 16.5133 84.0441 15.4627C84.0441 14.3413 84.425 13.3921 85.1746 12.6394C85.915 11.8714 86.8551 11.4812 87.9702 11.4812C89.0731 11.4812 90.0132 11.8714 90.7689 12.6394C91.5185 13.4166 91.8995 14.3659 91.8995 15.4627C91.8872 16.5871 91.5062 17.5363 90.7689 18.2859C90.0286 19.0601 89.0885 19.4472 87.9733 19.4472ZM54.7914 19.4472C53.7008 19.4472 52.7546 19.0632 51.9805 18.3044C51.2124 17.5486 50.8223 16.5932 50.8223 15.4657C50.8223 14.3383 51.2124 13.3828 51.9805 12.6271C52.7393 11.8683 53.6855 11.4843 54.7914 11.4843C55.3321 11.4843 55.8575 11.5918 56.3613 11.8099C56.8559 12.0219 57.2583 12.3107 57.5563 12.664L57.6301 12.7531L56.7975 13.5702L56.7115 13.4689C56.2415 12.9097 55.6117 12.6363 54.7791 12.6363C54.0357 12.6363 53.3875 12.9005 52.8529 13.4228C52.3153 13.9481 52.0419 14.6363 52.0419 15.4688C52.0419 16.3013 52.3153 16.9895 52.8529 17.5148C53.3875 18.0371 54.0357 18.3013 54.7791 18.3013C55.5717 18.3013 56.2384 18.0371 56.7576 17.5148C57.0648 17.2076 57.2553 16.7775 57.3229 16.2338H54.6532V15.0848H58.4687L58.4841 15.1892C58.5118 15.3828 58.5394 15.5825 58.5394 15.7668C58.5394 16.8267 58.2199 17.6838 57.5871 18.3166C56.8682 19.0662 55.9281 19.4472 54.7914 19.4472ZM98.91 19.2844H97.7334L94.1298 13.518L94.1605 14.5564V19.2813H92.9839V11.6471H94.3264L94.3633 11.7055L97.7518 17.137L97.7211 16.1017V11.6471H98.91V19.2844ZM79.1318 19.2844H77.9398V12.7961H75.8723V11.6471H81.1962V12.7961H79.1287V19.2844H79.1318ZM74.9015 19.2844H73.7126V11.6471H74.9015V19.2844ZM68.2196 19.2844H67.0307V12.7961H64.9632V11.6471H70.2872V12.7961H68.2196V19.2844ZM64.2105 19.2721H59.6515V11.6471H64.2105V12.7961H60.8435V14.8912H63.8818V16.0279H60.8435V18.1231H64.2105V19.2721ZM86.0471 17.4995C86.5786 18.0309 87.2237 18.2982 87.9733 18.2982C88.7444 18.2982 89.3742 18.0371 89.8995 17.4995C90.4218 16.9772 90.686 16.2921 90.686 15.4657C90.686 14.6393 90.4218 13.9512 89.9026 13.432C89.3711 12.9005 88.7229 12.6332 87.9764 12.6332C87.2053 12.6332 86.5755 12.8944 86.0532 13.432C85.531 13.9543 85.2668 14.6393 85.2668 15.4657C85.2668 16.2921 85.5279 16.9803 86.0471 17.4995Z" fill="white"/>
<path fill-rule="evenodd" clip-rule="evenodd" d="M83.9336 29.9475C81.0304 29.9475 78.6772 32.1502 78.6772 35.1885C78.6772 38.1992 81.0458 40.4295 83.9336 40.4295C86.8367 40.4295 89.19 38.2115 89.19 35.1885C89.19 32.1502 86.8367 29.9475 83.9336 29.9475ZM83.9336 38.3528C82.3453 38.3528 80.9782 37.0379 80.9782 35.1762C80.9782 33.2869 82.3484 31.9997 83.9336 31.9997C85.5219 31.9997 86.8889 33.2869 86.8889 35.1762C86.892 37.0502 85.5219 38.3528 83.9336 38.3528ZM72.4654 29.9475C69.5622 29.9475 67.209 32.1502 67.209 35.1885C67.209 38.1992 69.5776 40.4295 72.4654 40.4295C75.3685 40.4295 77.7218 38.2115 77.7218 35.1885C77.7218 32.1502 75.3655 29.9475 72.4654 29.9475ZM72.4654 38.3528C70.8771 38.3528 69.51 37.0379 69.51 35.1762C69.51 33.2869 70.8802 31.9997 72.4654 31.9997C74.0537 31.9997 75.4207 33.2869 75.4207 35.1762C75.4207 37.0502 74.0537 38.3528 72.4654 38.3528ZM58.8191 31.5481V33.7661H64.143C63.9802 35.0103 63.5685 35.9289 62.9388 36.5587C62.1584 37.339 60.9542 38.1869 58.8313 38.1869C55.5595 38.1869 53.0005 35.5449 53.0005 32.2731C53.0005 29.0013 55.5595 26.3593 58.8313 26.3593C60.5978 26.3593 61.885 27.0566 62.8405 27.9475L64.4134 26.3746C63.0862 25.1028 61.3198 24.1289 58.8436 24.1289C54.3553 24.1289 50.5889 27.7847 50.5889 32.2608C50.5889 36.7491 54.3522 40.3927 58.8436 40.3927C61.2675 40.3927 63.0862 39.6001 64.524 38.107C65.9894 36.6416 66.4533 34.5741 66.4533 32.9059C66.4533 32.3867 66.4133 31.9198 66.3304 31.5235H58.816C58.8191 31.5204 58.8191 31.5481 58.8191 31.5481ZM114.636 33.2746C114.197 32.098 112.87 29.9352 110.148 29.9352C107.451 29.9352 105.208 32.058 105.208 35.1762C105.208 38.1193 107.426 40.4172 110.409 40.4172C112.805 40.4172 114.2 38.9518 114.775 38.0917L112.996 36.8997C112.406 37.7752 111.586 38.3497 110.421 38.3497C109.245 38.3497 108.421 37.8152 107.875 36.7614L114.882 33.8583C114.882 33.8614 114.636 33.2746 114.636 33.2746ZM107.491 35.0257C107.435 33.0012 109.063 31.972 110.228 31.972C111.146 31.972 111.911 32.4236 112.172 33.081L107.491 35.0257ZM101.798 40.1039H104.099V24.7065H101.798V40.1039ZM98.0192 31.1118H97.9363C97.4171 30.4943 96.4309 29.9352 95.1714 29.9352C92.557 29.9352 90.1484 32.2362 90.1484 35.1916C90.1484 38.1347 92.5447 40.408 95.1714 40.408C96.4156 40.408 97.4171 39.8458 97.9363 39.216H98.0192V39.9687C98.0192 41.9687 96.9501 43.047 95.2267 43.047C93.8166 43.047 92.941 42.0332 92.5846 41.1853L90.5847 42.0209C91.1592 43.4033 92.6922 45.1145 95.2236 45.1145C97.9209 45.1145 100.207 43.5262 100.207 39.6523V30.2486H98.0315V31.1118H98.0192ZM95.3772 38.3528C93.7889 38.3528 92.4618 37.0256 92.4618 35.1916C92.4618 33.3422 93.7889 32.0027 95.3772 32.0027C96.9501 32.0027 98.1697 33.3575 98.1697 35.1916C98.1851 37.0256 96.9532 38.3528 95.3772 38.3528ZM125.41 24.7065H119.908V40.1039H122.209V34.273H125.413C127.96 34.273 130.464 32.4267 130.464 29.4959C130.464 26.5651 127.969 24.7065 125.41 24.7065ZM125.478 32.1225H122.206V26.8385H125.478C127.201 26.8385 128.175 28.2609 128.175 29.4805C128.175 30.6879 127.189 32.1225 125.478 32.1225ZM139.686 29.9198C138.015 29.9198 136.292 30.6602 135.579 32.2731L137.619 33.121C138.058 32.2731 138.863 31.9843 139.714 31.9843C140.906 31.9843 142.11 32.697 142.138 33.9689V34.1317C141.726 33.8982 140.823 33.5419 139.742 33.5419C137.539 33.5419 135.305 34.7461 135.305 37.0041C135.305 39.0717 137.112 40.3988 139.124 40.3988C140.669 40.3988 141.52 39.7014 142.052 38.8935H142.135V40.0855H144.353V34.187C144.353 31.4405 142.313 29.9198 139.686 29.9198ZM139.397 38.3528C138.645 38.3528 137.591 37.9841 137.591 37.0379C137.591 35.8459 138.906 35.3943 140.027 35.3943C141.041 35.3943 141.52 35.6125 142.122 35.9135C141.957 37.296 140.789 38.3405 139.397 38.3528ZM152.445 30.2486L149.803 36.9273H149.72L146.983 30.2486H144.506L148.614 39.5847L146.273 44.7735H148.669L154.988 30.2486H152.445ZM131.733 40.1039H134.034V24.7065H131.733V40.1039Z" fill="white"/>
<path fill-rule="evenodd" clip-rule="evenodd" d="M12.8542 12.4273C12.4978 12.8113 12.292 13.3981 12.292 14.1661V41.4065C12.292 42.1746 12.4978 42.7613 12.8665 43.13L12.9617 43.2129L28.224 27.9507V27.6097L12.9494 12.3444L12.8542 12.4273Z" fill="url(#paint0_linear_84_24855)"/>
<path fill-rule="evenodd" clip-rule="evenodd" d="M33.3024 33.0532L28.2119 27.9627V27.6064L33.3024 22.5159L33.413 22.5835L39.4343 26.0058C41.1578 26.9766 41.1578 28.5802 39.4343 29.5633L33.413 32.9856L33.3024 33.0532Z" fill="url(#paint1_linear_84_24855)"/>
<path fill-rule="evenodd" clip-rule="evenodd" d="M33.4131 32.9858L28.212 27.7847L12.8545 43.1422C13.4167 43.7443 14.3598 43.8119 15.4136 43.2251L33.4131 32.9858Z" fill="url(#paint2_linear_84_24855)"/>
<path fill-rule="evenodd" clip-rule="evenodd" d="M33.4131 22.5838L15.4136 12.3598C14.3598 11.7576 13.4136 11.8406 12.8545 12.4427L28.212 27.7848L33.4131 22.5838Z" fill="url(#paint3_linear_84_24855)"/>
<path opacity="0.2" fill-rule="evenodd" clip-rule="evenodd" d="M33.3019 32.8752L15.4253 43.0316C14.4268 43.6061 13.5359 43.5662 12.9614 43.0439L12.8662 43.1392L12.9614 43.2221C13.5359 43.7413 14.4268 43.7843 15.4253 43.2098L33.4248 32.9858L33.3019 32.8752Z" fill="black"/>
<path opacity="0.12" fill-rule="evenodd" clip-rule="evenodd" d="M39.4344 29.3852L33.2871 32.8752L33.3977 32.9858L39.419 29.5634C40.2823 29.0719 40.7063 28.4267 40.7063 27.7847C40.654 28.3745 40.2147 28.9336 39.4344 29.3852Z" fill="black"/>
<path opacity="0.25" fill-rule="evenodd" clip-rule="evenodd" d="M15.4133 12.5377L39.4341 26.184C40.2144 26.6233 40.6537 27.1978 40.7213 27.7846C40.7213 27.1425 40.2974 26.4974 39.4341 26.0058L15.4133 12.3595C13.6898 11.3734 12.292 12.1967 12.292 14.1659V14.3441C12.292 12.3718 13.6898 11.5638 15.4133 12.5377Z" fill="white"/>
</g>
<defs>
<linearGradient id="paint0_linear_84_24855" x1="26.8551" y1="13.8725" x2="2.40731" y2="20.3866" gradientUnits="userSpaceOnUse">
<stop stop-color="#00A0FF"/>
<stop offset="0.007" stop-color="#00A1FF"/>
<stop offset="0.26" stop-color="#00BEFF"/>
<stop offset="0.512" stop-color="#00D2FF"/>
<stop offset="0.76" stop-color="#00DFFF"/>
<stop offset="1" stop-color="#00E3FF"/>
</linearGradient>
<linearGradient id="paint1_linear_84_24855" x1="41.6818" y1="27.7845" x2="11.8733" y2="27.7845" gradientUnits="userSpaceOnUse">
<stop stop-color="#FFE000"/>
<stop offset="0.409" stop-color="#FFBD00"/>
<stop offset="0.775" stop-color="#FFA500"/>
<stop offset="1" stop-color="#FF9C00"/>
</linearGradient>
<linearGradient id="paint2_linear_84_24855" x1="30.5847" y1="30.615" x2="10.9585" y2="63.6473" gradientUnits="userSpaceOnUse">
<stop stop-color="#FF3A44"/>
<stop offset="1" stop-color="#C31162"/>
</linearGradient>
<linearGradient id="paint3_linear_84_24855" x1="8.98743" y1="3.36662" x2="17.7434" y2="18.1197" gradientUnits="userSpaceOnUse">
<stop stop-color="#32A071"/>
<stop offset="0.069" stop-color="#2DA771"/>
<stop offset="0.476" stop-color="#15CF74"/>
<stop offset="0.801" stop-color="#06E775"/>
<stop offset="1" stop-color="#00F076"/>
</linearGradient>
<clipPath id="clip0_84_24855">
<rect width="167" height="56.3625" fill="white"/>
</clipPath>
</defs>
</svg>
