<svg width="40" height="40" viewBox="0 0 40 40" fill="none" xmlns="http://www.w3.org/2000/svg">
<path d="M15.834 13.3333L26.6673 19.9999L15.834 26.6666V13.3333Z" stroke="#272E35" stroke-width="3" stroke-miterlimit="10" stroke-linecap="round" stroke-linejoin="round"/>
<path d="M5.00033 5H35.0003C35.8844 5 36.7322 5.35119 37.3573 5.97631C37.9825 6.60143 38.3337 7.44928 38.3337 8.33333V31.6667C38.3337 32.5507 37.9825 33.3986 37.3573 34.0237C36.7322 34.6488 35.8844 35 35.0003 35H5.00033C4.11627 35 3.26842 34.6488 2.6433 34.0237C2.01818 33.3986 1.66699 32.5507 1.66699 31.6667V8.33333C1.66699 7.44928 2.01818 6.60143 2.6433 5.97631C3.26842 5.35119 4.11627 5 5.00033 5V5Z" stroke="#272E35" stroke-width="3" stroke-miterlimit="10" stroke-linecap="round" stroke-linejoin="round"/>
</svg>
