<svg width="75" height="75" viewBox="0 0 75 75" fill="none" xmlns="http://www.w3.org/2000/svg">
<mask id="mask0_75_80086" style="mask-type:alpha" maskUnits="userSpaceOnUse" x="0" y="0" width="75" height="75">
<rect width="75" height="75" fill="#D9D9D9"/>
</mask>
<g mask="url(#mask0_75_80086)">
</g>
<g clip-path="url(#clip0_75_80086)">
<path d="M61.7925 40.2158C61.7925 38.5402 61.6567 36.8555 61.3668 35.207H38.1162V44.6993H51.4307C50.8782 47.7607 49.103 50.4689 46.5035 52.1898V58.349H54.4469C59.1115 54.0557 61.7925 47.7154 61.7925 40.2158Z" fill="#4285F4"/>
<path d="M38.1157 64.2996C44.7639 64.2996 50.3705 62.1167 54.4555 58.3488L46.512 52.1897C44.302 53.6932 41.4489 54.5446 38.1248 54.5446C31.694 54.5446 26.2414 50.2061 24.2849 44.373H16.0879V50.7224C20.2725 59.0462 28.7956 64.2996 38.1157 64.2996Z" fill="#34A853"/>
<path d="M24.276 44.3732C23.2434 41.3117 23.2434 37.9967 24.276 34.9352V28.5859H16.088C12.5918 35.5512 12.5918 43.7573 16.088 50.7225L24.276 44.3732Z" fill="#FBBC04"/>
<path d="M38.1157 24.7546C41.63 24.7003 45.0266 26.0227 47.5718 28.4501L54.6095 21.4124C50.1532 17.2279 44.2386 14.9272 38.1157 14.9997C28.7956 14.9997 20.2725 20.2531 16.0879 28.586L24.2759 34.9353C26.2232 29.0932 31.6849 24.7546 38.1157 24.7546Z" fill="#EA4335"/>
</g>
<defs>
<clipPath id="clip0_75_80086">
<rect width="48.3218" height="49.3" fill="white" transform="translate(13.4707 15)"/>
</clipPath>
</defs>
</svg>
