<svg width="64" height="64" viewBox="0 0 64 64" fill="none" xmlns="http://www.w3.org/2000/svg">
<mask id="mask0_75_80089" style="mask-type:alpha" maskUnits="userSpaceOnUse" x="0" y="0" width="64" height="64">
<rect width="64" height="64" fill="#D9D9D9"/>
</mask>
<g mask="url(#mask0_75_80089)">
</g>
<g clip-path="url(#clip0_75_80089)">
<path d="M22.3372 60.0002C27.4892 60.0002 31.6706 55.8188 31.6706 50.6668V41.3335H22.3372C17.1852 41.3335 13.0039 45.5148 13.0039 50.6668C13.0039 55.8188 17.1852 60.0002 22.3372 60.0002Z" fill="#0ACF83"/>
<path d="M13.0039 31.9998C13.0039 26.8478 17.1852 22.6665 22.3372 22.6665H31.6706V41.3332H22.3372C17.1852 41.3332 13.0039 37.1518 13.0039 31.9998Z" fill="#A259FF"/>
<path d="M13.0049 13.3333C13.0049 8.18133 17.1862 4 22.3382 4H31.6715V22.6667H22.3382C17.1862 22.6667 13.0049 18.4853 13.0049 13.3333Z" fill="#F24E1E"/>
<path d="M31.6709 4H41.0042C46.1562 4 50.3376 8.18133 50.3376 13.3333C50.3376 18.4853 46.1562 22.6667 41.0042 22.6667H31.6709V4Z" fill="#FF7262"/>
<path d="M50.3376 31.9998C50.3376 37.1518 46.1562 41.3332 41.0042 41.3332C35.8522 41.3332 31.6709 37.1518 31.6709 31.9998C31.6709 26.8478 35.8522 22.6665 41.0042 22.6665C46.1562 22.6665 50.3376 26.8478 50.3376 31.9998Z" fill="#1ABCFE"/>
</g>
<defs>
<clipPath id="clip0_75_80089">
<rect width="37.3408" height="56" fill="white" transform="translate(13 4)"/>
</clipPath>
</defs>
</svg>
