<svg width="75" height="75" viewBox="0 0 75 75" fill="none" xmlns="http://www.w3.org/2000/svg">
<mask id="mask0_75_80090" style="mask-type:alpha" maskUnits="userSpaceOnUse" x="0" y="0" width="75" height="75">
<rect width="75" height="75" fill="#D9D9D9"/>
</mask>
<g mask="url(#mask0_75_80090)">
</g>
<path fill-rule="evenodd" clip-rule="evenodd" d="M44.6903 15.6026L19.7156 17.4404C17.7018 17.6147 17 18.9275 17 20.5013V47.7974C17 49.0238 17.4374 50.072 18.4895 51.473L24.3604 59.0845C25.3247 60.3101 26.201 60.5723 28.0424 60.4846L57.0453 58.7345C59.4983 58.5604 60.2 57.4222 60.2 55.4975V24.7887C60.2 23.7938 59.8061 23.5064 58.6448 22.6592C58.5809 22.6127 58.5146 22.5644 58.446 22.5141L50.4738 16.9151C48.5462 15.5158 47.7572 15.3398 44.6903 15.6026ZM28.7 24.285C26.3321 24.4448 25.794 24.4811 24.4493 23.3894L21.0297 20.6774C20.681 20.3267 20.8559 19.8893 21.7316 19.8024L45.7419 18.0525C47.7567 17.8772 48.8081 18.5783 49.5971 19.1903L53.7153 22.1652C53.8907 22.2524 54.3281 22.7766 53.802 22.7766L29.0057 24.2645L28.7 24.285ZM25.938 55.2346V29.164C25.938 28.0268 26.2886 27.5015 27.3395 27.4131L55.8173 25.7514C56.7833 25.664 57.2207 26.2769 57.2207 27.4131V53.309C57.2207 54.4472 57.0449 55.4108 55.467 55.4975L28.216 57.0733C26.6389 57.16 25.938 56.6357 25.938 55.2346ZM52.8404 30.5624C53.0151 31.3506 52.8404 32.138 52.0502 32.2267L50.7371 32.4881V51.7351C49.5971 52.3474 48.5459 52.6975 47.6699 52.6975C46.2674 52.6975 45.9161 52.2596 44.8656 50.948L36.2769 37.475V50.5106L38.9946 51.1234C38.9946 51.1234 38.9946 52.6975 36.8021 52.6975L30.7574 53.0479C30.5817 52.6975 30.7574 51.8233 31.3704 51.6481L32.9479 51.2113V33.9758L30.7577 33.8005C30.582 33.0124 31.0195 31.8759 32.2472 31.7877L38.7318 31.351L47.6699 44.9993V32.9255L45.3911 32.6642C45.216 31.7006 45.9161 31.001 46.7925 30.9142L52.8404 30.5624Z" fill="black"/>
</svg>
